<svg xmlns="http://www.w3.org/2000/svg" xmlns:xlink="http://www.w3.org/1999/xlink"><symbol fill="currentColor" viewBox="0 0 20 20" id="check"><path d="M16.25 5 7.5 15l-3.75-3.75" stroke="#1B1D1B" stroke-linecap="round" stroke-linejoin="round"/></symbol><symbol fill="currentColor" viewBox="0 0 0 0" id="icons-sprite"/><symbol fill="currentColor" viewBox="0 0 40 40" id="list-star"><path d="M19.06 7.716a.976.976 0 0 1 1.88 0l2.391 7.706a.995.995 0 0 0 .941.716h7.737c.958 0 1.357 1.284.581 1.874l-6.259 4.763a1.064 1.064 0 0 0-.359 1.158l2.39 7.706c.297.955-.746 1.748-1.522 1.158l-6.259-4.762a.953.953 0 0 0-1.162 0l-6.26 4.762c-.775.59-1.818-.203-1.522-1.158l2.391-7.706a1.064 1.064 0 0 0-.36-1.158L7.41 18.012c-.776-.59-.377-1.874.581-1.874h7.737a.995.995 0 0 0 .94-.716l2.391-7.706Z"/></symbol></svg>