<svg xmlns="http://www.w3.org/2000/svg" width="40" height="40" viewBox="0 0 40 40" fill="none">
<path d="M33.5999 7.00012H6.39988C4.52988 7.00012 3.01688 8.46262 3.01688 10.2501L2.99988 29.7501C2.99988 31.5376 4.52988 33.0001 6.39988 33.0001H33.5999C35.4699 33.0001 36.9999 31.5376 36.9999 29.7501V10.2501C36.9999 8.46262 35.4699 7.00012 33.5999 7.00012ZM32.9199 13.9064L20.9009 21.0889C20.3569 21.4139 19.6429 21.4139 19.0989 21.0889L7.07988 13.9064C6.90941 13.8149 6.76014 13.6913 6.64109 13.5431C6.52204 13.3949 6.43568 13.2251 6.38726 13.0441C6.33883 12.8631 6.32933 12.6745 6.35934 12.4899C6.38936 12.3052 6.45825 12.1283 6.56186 11.9699C6.66546 11.8114 6.80163 11.6747 6.96211 11.568C7.1226 11.4613 7.30406 11.3868 7.49552 11.3491C7.68698 11.3114 7.88446 11.3112 8.076 11.3485C8.26754 11.3859 8.44917 11.46 8.60988 11.5664L19.9999 18.3751L31.3899 11.5664C31.5506 11.46 31.7322 11.3859 31.9238 11.3485C32.1153 11.3112 32.3128 11.3114 32.5042 11.3491C32.6957 11.3868 32.8772 11.4613 33.0376 11.568C33.1981 11.6747 33.3343 11.8114 33.4379 11.9699C33.5415 12.1283 33.6104 12.3052 33.6404 12.4899C33.6704 12.6745 33.6609 12.8631 33.6125 13.0441C33.5641 13.2251 33.4777 13.3949 33.3587 13.5431C33.2396 13.6913 33.0903 13.8149 32.9199 13.9064Z" fill="#F7FBFB"/>
</svg>